<svg width="119" height="40" viewBox="0 0 119 40" fill="none" xmlns="http://www.w3.org/2000/svg">
<g filter="url(#filter0_d_1_13)">
<path fill-rule="evenodd" clip-rule="evenodd" d="M109.062 16.2631L114.999 31.9825C113.9 31.8254 112.802 31.6435 111.695 31.4602C111.04 31.3517 110.381 31.2426 109.718 31.138L106.374 22.4512L102.937 30.42C101.919 30.2504 100.913 30.1487 99.9035 30.0467C99.2398 29.9796 98.5751 29.9125 97.9057 29.8258L103.937 16.0757L98.4681 1.98251H103.531L106.593 9.85674L109.875 1.98251H114.999L109.062 16.2631ZM94.4687 1.98251H89.875V29.2325C90.2016 29.2529 90.5312 29.2718 90.8629 29.2908C92.0538 29.3591 93.2707 29.4289 94.4687 29.5755V1.98251ZM85.9055 28.9194C81.7186 28.6383 77.5308 28.3889 73.2502 28.2943V1.98251H77.9366V23.8571C79.6534 23.8972 81.3697 24.0008 83.0615 24.1029C84.0188 24.1606 84.9683 24.2179 85.9055 24.263V28.9194ZM68.2497 12.6386V17.326H61.8442V27.9821H57.2187V1.98251H70.3436V6.66993H61.8442V12.6386H68.2497ZM8.78114 17.67V31.3255C7.09401 31.5139 5.5934 31.7323 4 31.9825V16.0757V1.98251L8.78114 4.48251L11.6715 1.98251L14.5624 4.48251L19.2498 1.98251V31.138L14.5624 31.3255V17.67H8.78114ZM8.78114 8.60673C10.1917 6.84387 13.3234 6.84387 14.7339 8.60673C15.8625 10.0173 14.7339 13.2325 14.7339 13.2325H8.78114C8.78114 13.2325 7.65252 10.0173 8.78114 8.60673Z" fill="#FF000D"/>
<path fill-rule="evenodd" clip-rule="evenodd" d="M27.9321 12.887L27.9673 12.8841C27.9554 12.886 27.9436 12.887 27.9321 12.887Z" fill="#FF000D"/>
<path fill-rule="evenodd" clip-rule="evenodd" d="M27.9321 17.5754V24.5077V29.1378L23.2446 29.5755V1.88785C23.2446 1.88785 34.4195 1.02162 35.7131 2.63862C37.0067 4.25562 36.7131 6.57526 36.7131 6.57526L35.7131 16.8886C35.2131 17.3886 34.746 17.5667 33.824 17.5572C31.697 17.5354 29.1528 17.5093 27.9321 17.5754ZM27.9321 6.57526H32.0726V12.544L27.9673 12.8841C27.9554 12.886 27.9436 12.887 27.9321 12.887V6.57526Z" fill="#FF000D"/>
<path fill-rule="evenodd" clip-rule="evenodd" d="M44.719 12.0434L44.7543 12.0405C44.7424 12.0425 44.7306 12.0434 44.719 12.0434Z" fill="#FF000D"/>
<path fill-rule="evenodd" clip-rule="evenodd" d="M44.719 16.7318V23.6641V27.5763L40.0316 28.2943V1.57666C40.0316 1.57666 51.2064 0.615768 52.5 2.23277C53.7936 3.84976 53.5 5.73169 53.5 5.73169L52.5 16.0451C52 16.5451 51.5329 16.7231 50.611 16.7137C48.484 16.6919 45.9398 16.6657 44.719 16.7318ZM44.719 5.73169H48.8595V11.7004L44.7543 12.0405C44.7424 12.0425 44.7306 12.0434 44.719 12.0434V5.73169Z" fill="#FF000D"/>
</g>
<defs>
<filter id="filter0_d_1_13" x="0" y="1.29328" width="118.999" height="38.6892" filterUnits="userSpaceOnUse" color-interpolation-filters="sRGB">
<feFlood flood-opacity="0" result="BackgroundImageFix"/>
<feColorMatrix in="SourceAlpha" type="matrix" values="0 0 0 0 0 0 0 0 0 0 0 0 0 0 0 0 0 0 127 0" result="hardAlpha"/>
<feOffset dy="4"/>
<feGaussianBlur stdDeviation="2"/>
<feComposite in2="hardAlpha" operator="out"/>
<feColorMatrix type="matrix" values="0 0 0 0 0 0 0 0 0 0 0 0 0 0 0 0 0 0 0.25 0"/>
<feBlend mode="normal" in2="BackgroundImageFix" result="effect1_dropShadow_1_13"/>
<feBlend mode="normal" in="SourceGraphic" in2="effect1_dropShadow_1_13" result="shape"/>
</filter>
</defs>
</svg>
